<?xml version="1.0" encoding="utf-8"?>
<!-- Generator: Adobe Illustrator 22.0.1, SVG Export Plug-In . SVG Version: 6.00 Build 0)  -->
<svg version="1.1" id="Layer_1" xmlns="http://www.w3.org/2000/svg" xmlns:xlink="http://www.w3.org/1999/xlink" x="0px" y="0px"
	 viewBox="0 0 340.9 427.4" style="enable-background:new 0 0 340.9 427.4;" xml:space="preserve">
<style type="text/css">
	.st0{fill:#6D6D6D;}
	.st1{fill:#EFEFEF;}
	.st2{fill:#931C1C;}
	.st3{fill:#070300;}
	.st4{fill:#231F20;}
</style>
<title>Asset 1</title>
<g id="Layer_2_1_">
	<g id="Layer_1-2">
		<path class="st0" d="M291.2,242.6l-8.2,2.5l-13.1,4c-1.5-1.4-3.4-2.5-5.3-3.3c-3.9-1.4-8-2.2-12.1-2.2
			c30.4-63.6,9.5-91.5,9.5-91.5C236.1,131.2,236,92,236,92c-5.5-11.7-19.9-16.1-19.9-16.1C196,56.1,168.9,67,168.9,67
			C83,128.3,42,106.4,42,106.4l-17.3,26.3C-1.3,49.2,76.4,26,76.4,26c134.2-62.3,191.5,27.3,191.5,27.3
			C394.7,89.5,291.2,242.6,291.2,242.6z"/>
		<path class="st0" d="M252.6,243.7c4.1,0.1,8.2,0.8,12.1,2.2C260.6,245.5,256.6,244.8,252.6,243.7z"/>
		<path class="st0" d="M291.2,242.6c-2.6,1.1-5.4,1.9-8.2,2.4L291.2,242.6z"/>
		<path class="st1" d="M42.2,106.5c0,0-84.3,169,6.1,272.5l0,0c0,0,51.3,90.1,126.7,13.6l0,0c0,0,57.3-18.3,75.6-76.5l0,0
			c0,0,48.1,31.6,77.3-28.4l0,0c0,0,6.3-58.9-58-38.7l0,0c0,0-12.3-12.4-27.1,8l0,0c0,0,45.8-66,10.6-113.7c0,0-19.9-26.6-17.3-51.4
			l0,0c-4-8-11.2-13.8-19.8-16l0,0c0,0-29.3-33.4-78.8,11.3C137.4,87.2,83.2,120.7,42.2,106.5"/>
		<path class="st2" d="M116,349.1l-38,35.6c0,0,43.4,48.1,88.1-31.6L116,349.1z"/>
		<path class="st3" d="M250,315.7l-0.1,0.1c0.1,0.2,0.3,0.3,0.5,0.3L250,315.7z"/>
		<path class="st3" d="M325,256.1c14.7,37.4-9.3,56.9-9.3,56.9c-23.7,20.9-45.5,16.2-59.2,9.1c-39.5,72.4-88.3,78.4-88.3,78.4
			c-5.4,5.8-11.5,11-18.1,15.3c-23,17.5-53.9,10-53.9,10c-21.6-4.9-34.1-18.4-41.5-32.3C39.5,379.3-38,297.6,23.2,136.4
			c-1.4-3.3-13.2-32-5.2-57.4v-0.1c12.5-54,85.5-71.7,85.5-71.7c125.6-28.8,158.7,39,160.4,42.5C221.1-5,134.5,9.4,134.5,9.4
			C-7.7,32,22,124.9,24.7,132.7l0.5-1.6c-5.5-27,7.9-28.8,7.9-28.8h0.1c-1.8-4.1-3.5-3.4-5.3-5.1c3.5,2.1,59.5,31.2,123.4-25.8
			c0,0,31.6-30.7,64.8,4.2c-2.2-1.5-32-22.5-64.8,6.1c0,0-61.8,49-109.2,24.6C40.7,109.8-38,285,48.3,379l2.2,4
			c-3.2-8.5-5.2-17.5-5.9-26.6c17.5,54.8,51.1,60.1,51.1,60.1c29.6,7.8,52.2-7.2,52.2-7.2c27.4-13.9,43-47.7,43.9-49.8
			c-3.4,12.1-9.2,23.4-16.9,33.3c45.9-17.9,69.6-64.9,74.2-75c-2.6-1.8-5.1-3.9-7.4-6.1c2.6,1.7,5.3,3.1,8.2,4.4
			c0.1,0.2,0.3,0.3,0.6,0.3h0.1c35.1,16,59.7-7.1,59.7-7.1c20.6-15.8,8-50.5,8-50.5c-11.2-21.7-46-10.4-48.4-9.5
			c8-3.7,15.1-5.7,21.3-6.4c5.3-8.6,99.1-163.4-31.6-191.3c0,0,141.4,6.5,38.2,190.9C317.7,242.5,325,256.1,325,256.1z"/>
		<path class="st3" d="M263.4,275.1c0,0,10.6-27.8,38-6.3C301.4,268.8,277,259.7,263.4,275.1z"/>
		<path class="st3" d="M279.6,266.6c0,0,0,7.8-16.2,8.5C263.4,275.1,274.3,261.7,279.6,266.6z"/>
		<path class="st3" d="M236.1,92.1c0,0-6.1,33,21.4,61.6c0,0,23.9,24.6-14.7,103.5c4.7-7.9,13.8-12.2,22.9-10.9
			c0,0-7.2-4.4-13.2-2.6c0,0,35.3-53.5,7.1-95.5C259.7,148.2,242.1,132.6,236.1,92.1z"/>
		<path class="st3" d="M262.8,47.6c0,0,8.5-9.5,0.8-18.1C263.7,29.3,275.9,31.9,262.8,47.6z"/>
		<path class="st3" d="M264.2,51.4c0,0,8.3-9.7,17.9-3.4C282.1,48,277.7,36.3,264.2,51.4z"/>
		<path class="st3" d="M164.9,269.4c0,0,35.6,13,37.9,31.2C202.8,300.6,213.6,273.4,164.9,269.4z"/>
		<path class="st3" d="M183.7,273.4C110.1,366.3,50.9,307,50.9,307l-1.2-1.4c7.4,13.4,30.8,22.2,30.8,22.2c-16.8,23.6-9,50-9,50
			c18.5,47.3,66.8,16.6,66.8,16.6c21-15.1,25.6-22,35-45.8C188.2,310.5,183.7,273.4,183.7,273.4z M85,389.4c0,0,5.6-21.4,21.4-18.4
			c0,0,9.1,2.6,5.4,6.4c0,0-5.4,12.7,8.2,1c0,0,35.4-35.7,39-18.3C159.2,359.9,130.6,416.5,85,389.4z"/>
		<path class="st4" d="M59.5,196.9l17.3-8.9c1.2-18.3-5.3-33.4-15.7-35c-11.5-1.8-23.3,13.6-26.5,34.4s3.7,38.8,15.1,40.6
			c8.9,1.4,17.9-7.5,22.9-21L59.5,196.9z"/>
		<path class="st4" d="M174.9,207.3l17.3-8.9c1.2-18.3-5.3-33.4-15.7-35.1c-11.5-1.8-23.3,13.6-26.5,34.4s3.7,38.9,15.1,40.6
			c8.9,1.4,17.9-7.5,22.9-21L174.9,207.3z"/>
		<path class="st4" d="M91.3,122.5c0,0,2.7-11.7,1.5-15.1l-3.1,3.4c0,0-40.5-6.9-45.1,17.9C44.6,128.5,70.7,106.4,91.3,122.5z"/>
		<path class="st4" d="M161.6,131.9c0,0-2.2-11.9-0.8-15.1l3,3.6c0,0,40.6-5.3,44.3,19.6C208.1,139.8,182.9,116.6,161.6,131.9z"/>
		<path class="st4" d="M63.5,268.7c7.5-30.4,39-16.9,49-7.1c-0.8-3.5-8.2-9.1-14.3-12.3c-26.2-13.5-40.5,0.7-43.5,16.2
			s7.9,41.6,44.6,29.3c3.4-1.2,6.6-3,9.4-5.3C92.4,300.7,56.2,298.3,63.5,268.7z"/>
		<path class="st4" d="M139.4,229.4c0,0,1.8,18.4,28.4,29.1C167.8,258.4,137.4,255.9,139.4,229.4z"/>
		<path class="st4" d="M66.5,235.8c0,0-5.9,10.4-24.3,11.9c0,0,13.1-4.2,20.3-12L66.5,235.8z"/>
		<path class="st4" d="M75.3,81.8c0,0-22.8,10.8-46.5-1C28.8,80.9,50.4,99.8,75.3,81.8z"/>
		<path class="st4" d="M82.8,62.7c0,0-21,13.9-46.1,5.6C36.7,68.3,60.7,84.2,82.8,62.7z"/>
		<path class="st4" d="M236.2,62.1c0,0-11.6-28.6-50.2-25.2C186.1,37,226.4,27,236.2,62.1z"/>
	</g>
</g>
</svg>
