<?xml version="1.0" encoding="utf-8"?>
<!-- Generator: Adobe Illustrator 22.0.1, SVG Export Plug-In . SVG Version: 6.00 Build 0)  -->
<svg version="1.1" id="Layer_1" xmlns="http://www.w3.org/2000/svg" xmlns:xlink="http://www.w3.org/1999/xlink" x="0px" y="0px"
	 viewBox="0 0 500 500" style="enable-background:new 0 0 500 500;" xml:space="preserve">
<path d="M332.2,280c4.1,0.1,8.2,0.8,12.1,2.2C340.2,281.9,336.2,281.1,332.2,280z M370.8,278.9c-2.6,1.1-5.4,1.9-8.2,2.5
	L370.8,278.9z"/>
<path d="M329.6,352l-0.1,0.1c0.1,0.2,0.3,0.3,0.5,0.3L329.6,352z"/>
<path d="M404.6,292.4c14.7,37.4-9.3,56.9-9.3,56.9c-23.7,20.9-45.5,16.2-59.2,9.1c-39.5,72.4-88.3,78.4-88.3,78.4
	c-5.4,5.8-11.5,11-18.1,15.3c-23,17.4-53.9,10-53.9,10c-21.5-4.9-34.1-18.4-41.5-32.3c-15.3-14.2-92.7-95.9-31.5-257.1
	c-1.4-3.3-13.2-32-5.2-57.4v-0.1c12.5-54,85.5-71.7,85.5-71.7c125.6-28.8,158.8,39,160.4,42.6c-42.8-54.7-129.4-40.2-129.4-40.2
	C71.8,68.4,101.6,161.2,104.3,169l0.5-1.6c-5.5-27,7.9-28.8,7.9-28.8h0.1c-1.8-4.1-3.5-3.4-5.3-5c3.5,2,59.5,31.2,123.4-25.8
	c0,0,31.6-30.7,64.8,4.2c-2.2-1.5-32-22.5-64.8,6.1c0,0-26.6,21.1-58.3,28.7c-0.1,4.8-1.8,11.9-1.8,11.9c-20.6-16.1-46.6,6-46.8,6.1
	c1.7-9,8.1-13.8,15.6-16.3c-6.1-1-12.1-2.9-17.9-5.9c-1.5,3.4-80.2,178.6,6.1,272.6l2.2,4c-3.2-8.5-5.2-17.5-5.9-26.6
	c17.5,54.8,51.1,60.1,51.1,60.1c29.6,7.8,52.2-7.2,52.2-7.2c27.4-13.9,43-47.7,43.9-49.8c-3.4,12.1-9.2,23.4-16.9,33.3
	c46-17.9,69.5-64.9,74.2-75c-2.6-1.9-5.1-3.9-7.4-6.1c2.6,1.7,5.3,3.1,8.2,4.4c0.1,0.2,0.3,0.3,0.5,0.3h0.1c35,16,59.7-7.1,59.7-7.1
	c20.6-15.8,8-50.5,8-50.5c-11.2-21.7-46-10.4-48.4-9.5c8-3.7,15.1-5.7,21.3-6.4c5.3-8.6,99.1-163.4-31.6-191.3
	c0,0,141.4,6.5,38.2,190.9C397.2,278.8,404.6,292.4,404.6,292.4z"/>
<path d="M359.1,302.9C359.1,302.9,359.2,302.9,359.1,302.9c0.1,0.1,0.1,7.8-16.2,8.5l0,0l0,0c0.5-1.2,11.2-27.3,38-6.2
	C380.5,304.9,370,301.2,359.1,302.9z"/>
<path d="M332,280c0,0,35.3-53.5,7.1-95.5c0-0.1-17.5-15.8-23.5-56.2c0,0-6.1,33,21.4,61.6c0,0,23.9,24.5-14.7,103.5
	c4.8-7.9,13.8-12.2,22.9-10.9C345.3,282.6,338,278.3,332,280z"/>
<path d="M343.2,65.8c6.4,7.2,1.5,15-0.2,17.4C355.1,68.2,343.2,65.6,343.2,65.8z"/>
<path d="M344.1,87.4c1.6-1.7,9.1-8.6,17.5-3.1C361.5,83.9,357.1,73.1,344.1,87.4z"/>
<path d="M244.5,305.7c0,0,7.6,2.8,16,7.6c-72.3,87.9-130,30.1-130,30.1l-1.2-1.4c7.4,13.4,30.8,22.2,30.8,22.2c-16.8,23.6-9,50-9,50
	c18.5,47.3,66.8,16.6,66.8,16.6c21-15.1,25.6-22,35-45.8c11.5-29.5,11.5-58.3,10.8-69.9c8.8,5.5,17.6,13,18.7,21.8
	C282.4,336.9,293.2,309.8,244.5,305.7z M164.6,425.7c0,0,5.6-21.4,21.4-18.4c0,0,9.1,2.6,5.5,6.4c0,0-5.5,12.7,8.2,1
	c0,0,35.5-35.7,39-18.3C238.8,396.2,210.1,452.8,164.6,425.7z"/>
<path d="M139.1,233.2l17.3-8.9c1.2-18.3-5.3-33.4-15.7-35c-11.4-1.8-23.3,13.6-26.5,34.4s3.7,38.8,15.1,40.6
	c8.9,1.4,17.9-7.5,22.9-21L139.1,233.2z"/>
<path d="M254.5,243.6l17.3-8.9c1.2-18.3-5.3-33.4-15.7-35.1c-11.5-1.8-23.3,13.6-26.5,34.4s3.7,38.9,15.1,40.6
	c8.9,1.4,17.9-7.5,22.9-21L254.5,243.6z"/>
<path d="M241.2,168.2c0,0-2.2-11.9-0.8-15.1l3,3.6c0,0,40.6-5.3,44.3,19.6C287.7,176.1,262.5,152.9,241.2,168.2z"/>
<path d="M143,305c7.5-30.4,39-16.9,49-7.1c-0.8-3.5-8.2-9.1-14.3-12.3c-26.2-13.5-40.5,0.7-43.5,16.2s7.9,41.6,44.6,29.3
	c3.4-1.2,6.6-3,9.4-5.3C171.9,337,135.8,334.6,143,305z"/>
<path d="M219,265.7c0,0,1.8,18.4,28.4,29C247.4,294.8,217,292.2,219,265.7z"/>
<path d="M146,272.1c0,0-5.9,10.4-24.3,11.9c0,0,13.1-4.2,20.3-12L146,272.1z"/>
<path d="M154.9,118.1c0,0-22.8,10.8-46.5-1C108.4,117.2,129.9,136.1,154.9,118.1z"/>
<path d="M162.4,99.1c0,0-21,13.9-46.1,5.6C116.3,104.6,140.3,120.5,162.4,99.1z"/>
<path d="M315.8,98.4c0,0-11.6-28.6-50.2-25.2C265.6,73.3,306,63.3,315.8,98.4z"/>
</svg>
