<?xml version="1.0" encoding="utf-8"?>
<!-- Generator: Adobe Illustrator 18.1.0, SVG Export Plug-In . SVG Version: 6.00 Build 0)  -->
<svg version="1.1" id="Layer_1" xmlns="http://www.w3.org/2000/svg" xmlns:xlink="http://www.w3.org/1999/xlink" x="0px" y="0px"
	 viewBox="0 3.6 960 556.4" enable-background="new 0 3.6 960 556.4" xml:space="preserve">
<radialGradient id="SVGID_1_" cx="483.542" cy="206.3976" r="420.3067" gradientTransform="matrix(0.9989 0 0 0.7952 0 18.687)" gradientUnits="userSpaceOnUse">
	<stop  offset="0" style="stop-color:#D2D4D5"/>
	<stop  offset="1" style="stop-color:#48484A"/>
</radialGradient>
<rect y="3.6" fill="url(#SVGID_1_)" width="960" height="556.4"/>
<radialGradient id="SVGID_2_" cx="325.8585" cy="98.5646" r="128.8701" gradientTransform="matrix(0.9989 0 0 0.9989 0 3.5938)" gradientUnits="userSpaceOnUse">
	<stop  offset="0" style="stop-color:#E4E5E6"/>
	<stop  offset="1" style="stop-color:#646466"/>
</radialGradient>
<polygon fill="url(#SVGID_2_)" points="479.9,198.5 171.1,5.6 296.9,5.6 "/>
<radialGradient id="SVGID_3_" cx="437.6815" cy="98.6647" r="74.8759" gradientTransform="matrix(0.9989 0 0 0.9989 0 3.5938)" gradientUnits="userSpaceOnUse">
	<stop  offset="0" style="stop-color:#E4E5E6"/>
	<stop  offset="1" style="stop-color:#646466"/>
</radialGradient>
<polygon fill="url(#SVGID_3_)" points="480.4,5.6 480.4,198.7 394,5.6 "/>
<radialGradient id="SVGID_4_" cx="572.4297" cy="98.7148" r="94.1395" gradientTransform="matrix(0.9989 0 0 0.9989 0 3.5938)" gradientUnits="userSpaceOnUse">
	<stop  offset="0" style="stop-color:#E4E5E6"/>
	<stop  offset="1" style="stop-color:#646466"/>
</radialGradient>
<polygon fill="url(#SVGID_4_)" points="663.2,5.6 480.4,198.8 480.4,198.8 566.1,5.6 "/>
<radialGradient id="SVGID_5_" cx="720.9431" cy="98.7148" r="182.9738" gradientTransform="matrix(0.9989 0 0 0.9989 0 3.5938)" gradientUnits="userSpaceOnUse">
	<stop  offset="0" style="stop-color:#E4E5E6"/>
	<stop  offset="1" style="stop-color:#646466"/>
</radialGradient>
<polygon fill="url(#SVGID_5_)" points="959.9,5.6 959.9,23.3 480.4,198.8 480.4,198.8 789.3,5.6 "/>
<radialGradient id="SVGID_6_" cx="239.5635" cy="107.3243" r="180.366" gradientTransform="matrix(0.9989 0 0 0.9989 0 3.5938)" gradientUnits="userSpaceOnUse">
	<stop  offset="0" style="stop-color:#E4E5E6"/>
	<stop  offset="1" style="stop-color:#646466"/>
</radialGradient>
<polygon fill="url(#SVGID_6_)" points="478.6,198.3 0,172.6 0,23.3 "/>
<radialGradient id="SVGID_7_" cx="240.014" cy="302.539" r="185.8795" gradientTransform="matrix(0.9989 0 0 0.9989 0 3.5938)" gradientUnits="userSpaceOnUse">
	<stop  offset="0" style="stop-color:#E4E5E6"/>
	<stop  offset="1" style="stop-color:#646466"/>
</radialGradient>
<polygon fill="url(#SVGID_7_)" points="479.5,198.9 0,412.9 0,296.4 479.3,198.7 "/>
<radialGradient id="SVGID_8_" cx="720.6927" cy="364.5572" r="207.7666" gradientTransform="matrix(0.9989 0 0 0.9989 0 3.5938)" gradientUnits="userSpaceOnUse">
	<stop  offset="0" style="stop-color:#E4E5E6"/>
	<stop  offset="1" style="stop-color:#646466"/>
</radialGradient>
<polygon fill="url(#SVGID_8_)" points="959.9,412.9 959.9,536.7 479.9,198.8 "/>
<radialGradient id="SVGID_9_" cx="720.6927" cy="231.1605" r="175.4523" gradientTransform="matrix(0.9989 0 0 0.9989 0 3.5938)" gradientUnits="userSpaceOnUse">
	<stop  offset="0" style="stop-color:#E4E5E6"/>
	<stop  offset="1" style="stop-color:#646466"/>
</radialGradient>
<polygon fill="url(#SVGID_9_)" points="959.9,172.6 959.9,296.4 479.9,198.8 "/>
<radialGradient id="SVGID_10_" cx="240.1642" cy="376.9208" r="212.7773" gradientTransform="matrix(0.9989 0 0 0.9989 0 3.5938)" gradientUnits="userSpaceOnUse">
	<stop  offset="0" style="stop-color:#E4E5E6"/>
	<stop  offset="1" style="stop-color:#646466"/>
</radialGradient>
<polygon fill="url(#SVGID_10_)" points="123,561.2 479.8,199.1 479.7,199 0,536.7 0,560 123.9,560 "/>
<radialGradient id="SVGID_11_" cx="369.8068" cy="376.4703" r="149.7247" gradientTransform="matrix(0.9989 0 0 0.9989 0 3.5938)" gradientUnits="userSpaceOnUse">
	<stop  offset="0" style="stop-color:#E4E5E6"/>
	<stop  offset="1" style="stop-color:#646466"/>
</radialGradient>
<polygon fill="url(#SVGID_11_)" points="349,560 479.9,199.3 479.9,199.4 258.9,560 "/>
<radialGradient id="SVGID_12_" cx="449.9449" cy="376.5204" r="129.4985" gradientTransform="matrix(0.9989 0 0 0.9989 0 3.5938)" gradientUnits="userSpaceOnUse">
	<stop  offset="0" style="stop-color:#E4E5E6"/>
	<stop  offset="1" style="stop-color:#646466"/>
</radialGradient>
<polygon fill="url(#SVGID_12_)" points="480.4,560 480.4,199.4 480,199.4 480,199.5 418.5,560 "/>
<radialGradient id="SVGID_13_" cx="546.4011" cy="376.2201" r="135.9684" gradientTransform="matrix(0.9989 0 0 0.9989 0 3.5938)" gradientUnits="userSpaceOnUse">
	<stop  offset="0" style="stop-color:#E4E5E6"/>
	<stop  offset="1" style="stop-color:#646466"/>
</radialGradient>
<polygon fill="url(#SVGID_13_)" points="611.2,560 480.4,198.8 480.4,198.9 541.7,560 "/>
<radialGradient id="SVGID_14_" cx="658.5244" cy="376.3202" r="179.3524" gradientTransform="matrix(0.9989 0 0 0.9989 0 3.5938)" gradientUnits="userSpaceOnUse">
	<stop  offset="0" style="stop-color:#E4E5E6"/>
	<stop  offset="1" style="stop-color:#646466"/>
</radialGradient>
<polygon fill="url(#SVGID_14_)" points="835.6,560 480,199 701.2,560 "/>
<rect y="3.6" fill="none" width="960" height="556.4"/>
</svg>
